<svg class="w-147 h-auto" width="147" height="41" viewBox="0 0 147 41" fill="none" xmlns="http://www.w3.org/2000/svg"> <mask id="mask0_1153_3777" style="mask-type:luminance" maskUnits="userSpaceOnUse" x="1" y="0" width="145" height="40"> <path d="M146 0H1V39.9994H146V0Z" fill="white"></path> </mask> <g mask="url(#mask0_1153_3777)"> <path d="M36.4548 4.26137V6.32718C37.9625 4.48489 40.5125 3.94531 42.8202 3.94531C48.9438 4.01934 50.618 8.39301 50.581 13.5668V24.9937H44.2156V13.6223C44.2156 10.8119 42.5782 9.56473 40.8841 9.56473C38.6132 9.60175 36.7895 11.4625 36.7895 13.7519V25.0305H30.145V4.26137H36.4548Z" fill="#150C2F"></path> <path d="M114.492 4.26172H120.969V5.21135L113.263 25.0693L107.698 25.0878L99.5459 5.21135V4.26172H106.153L110.285 16.1911L114.491 4.26172H114.492Z" fill="#150C2F"></path> <path d="M139.728 14.6473C139.728 7.59414 129.363 7.63115 129.363 14.6473C129.363 21.6633 139.728 21.6263 139.728 14.6473ZM123.071 14.6473C123.071 -0.166545 146 -0.129529 146 14.6473C146 29.4239 123.071 29.35 123.071 14.6473Z" fill="#150C2F"></path> <path d="M12.0922 19.5598C8.8732 19.5598 7.23449 16.9914 7.29004 14.4971C7.34556 11.9657 8.92731 9.54681 12.0922 9.54681C14.7902 9.54681 16.987 11.8176 16.987 14.5711C17.024 17.289 14.8286 19.5214 12.0922 19.5584C12.1008 19.5584 12.1008 19.5584 12.0922 19.5584V19.5598ZM21.2311 4.33598H16.9884V6.49435C15.5917 4.7631 13.5273 4 11.4231 4C4.46251 4.00141 1.07408 8.69114 1.00004 14.3675C0.963025 20.0624 4.51806 25.3486 11.3476 25.3486C13.4134 25.3486 15.5163 24.7721 16.987 23.0038V25.0695H23.2214V9.06272L21.2297 4.33598H21.2311Z" fill="#150C2F"></path> <path d="M84.1738 19.5598C80.9533 19.5598 79.3346 16.9914 79.3715 14.4971C79.4085 11.9657 81.0088 9.54681 84.1738 9.54681C86.8716 9.54681 89.0684 11.8176 89.0684 14.5711C89.0869 17.289 86.9101 19.5214 84.1738 19.5584V19.5598ZM93.2926 4.33598H89.0501V6.49435C87.6548 4.7631 85.5888 4 83.4847 4C76.524 4 73.1557 8.68971 73.063 14.3661C73.026 20.0795 76.5625 25.3843 83.3921 25.3843C85.458 25.3843 87.5607 24.8075 89.0316 23.0394V25.1052H95.2659V9.09974L93.2926 4.33598Z" fill="#150C2F"></path> <path d="M67.5348 20.2496C66.0271 20.2496 64.6318 19.6729 64.6318 17.8306V9.67843H69.0425L66.8656 4.48613H64.6318V0L58.3975 0.53959V4.48472H55.5684V9.67701H58.3975V17.8292C58.3975 23.2449 61.3003 25.385 66.1026 25.3479C67.2557 25.3294 68.3918 25.2367 69.5266 25.0503L69.3216 20.063C68.7265 20.1741 68.1299 20.2496 67.5348 20.2496Z" fill="#150C2F"></path> <path d="M9.08962 39.8311L8.19409 37.4562H3.60545L2.70851 39.8311H1.68628L5.40076 30.1641H6.39593L10.1104 39.8311H9.08818H9.08962ZM3.95 36.5438H7.85098L5.90048 31.3757L3.95 36.5438Z" fill="#150C2F"></path> <path d="M13.0662 30.1641H14.0329V39.8311H13.0662V30.1641Z" fill="#150C2F"></path> <path d="M24.0871 38.9199H28.5062V39.8311H23.1204V30.1641H24.0871V38.9199Z" fill="#150C2F"></path> <path d="M38.9052 38.5409C37.9386 39.5119 36.7554 39.9974 35.3559 39.9974C33.9564 39.9974 32.7732 39.5119 31.8066 38.5409C30.8398 37.5699 30.3557 36.3881 30.3557 34.9986C30.3557 33.609 30.8398 32.4275 31.8066 31.4565C32.7732 30.4855 33.9564 30 35.3559 30C36.7554 30 37.9386 30.4855 38.9052 31.4565C39.872 32.4275 40.3561 33.609 40.3561 34.9986C40.3561 36.3881 39.872 37.5699 38.9052 38.5409ZM32.4842 37.8775C33.2573 38.6648 34.2156 39.0576 35.3573 39.0576C36.4992 39.0576 37.4558 38.6648 38.2304 37.8775C39.0034 37.0902 39.3906 36.1305 39.3906 34.9986C39.3906 33.8668 39.0034 32.9058 38.2304 32.1199C37.4572 31.3326 36.4992 30.9397 35.3573 30.9397C34.2156 30.9397 33.2587 31.3326 32.4842 32.1199C31.7112 32.9072 31.3239 33.8668 31.3239 34.9986C31.3239 36.1305 31.7112 37.0916 32.4842 37.8775Z" fill="#150C2F"></path> <path d="M50.0089 30.1641L46.5152 35.8675V39.8311H45.5484V35.8404L42.0688 30.1641H43.1594L46.0482 34.9023L48.9184 30.1641H50.0089Z" fill="#150C2F"></path> <path d="M58.1568 39.8311L57.2614 37.4562H52.6742L51.7771 39.8311H50.7549L54.4695 30.1641H55.4646L59.179 39.8311H58.1568ZM53.0172 36.5438H56.9167L54.9664 31.3757L53.0158 36.5438H53.0172Z" fill="#150C2F"></path> <path d="M63.0999 38.9199H67.5191V39.8311H62.1331V30.1641H63.0999V38.9199Z" fill="#150C2F"></path> <path d="M75.7227 30.1641V31.0753H72.7542V39.8311H71.7876V31.0753H68.8176V30.1641H75.7227Z" fill="#150C2F"></path> <path d="M85.7896 30.1641L82.2957 35.8675V39.8311H81.3291V35.8404L77.8496 30.1641H78.9401L81.8288 34.9023L84.6991 30.1641H85.7896Z" fill="#150C2F"></path> <path d="M98.4267 39.9974C96.963 39.9974 95.7513 39.5146 94.7947 38.548C93.8379 37.5812 93.3582 36.3981 93.3582 34.9986C93.3582 33.5991 93.8365 32.4161 94.7947 31.4493C95.7527 30.4827 96.963 30 98.4267 30C99.3191 30 100.139 30.2136 100.885 30.6421C101.631 31.0706 102.207 31.6487 102.611 32.3747L101.755 32.8715C101.452 32.2822 101.001 31.8123 100.401 31.4637C99.8019 31.1132 99.144 30.9381 98.4267 30.9381C97.2206 30.9381 96.2355 31.3298 95.4708 32.1127C94.7065 32.8958 94.3247 33.8569 94.3247 34.9986C94.3247 36.1405 94.7065 37.1029 95.4708 37.8844C96.2355 38.6676 97.2206 39.059 98.4267 39.059C99.144 39.059 99.8032 38.8839 100.401 38.5337C100.999 38.1835 101.451 37.7151 101.755 37.1256L102.611 37.6083C102.215 38.3359 101.641 38.9154 100.891 39.3481C100.141 39.781 99.3191 39.9974 98.4267 39.9974Z" fill="#150C2F"></path> <path d="M106.878 38.9199H111.297V39.8311H105.911V30.1641H106.878V38.9199Z" fill="#150C2F"></path> <path d="M121.696 38.5409C120.729 39.5119 119.546 39.9974 118.147 39.9974C116.747 39.9974 115.564 39.5119 114.597 38.5409C113.631 37.5699 113.146 36.3881 113.146 34.9986C113.146 33.609 113.631 32.4275 114.597 31.4565C115.564 30.4855 116.747 30 118.147 30C119.546 30 120.729 30.4855 121.696 31.4565C122.663 32.4275 123.147 33.609 123.147 34.9986C123.147 36.3881 122.663 37.5699 121.696 38.5409ZM115.275 37.8775C116.048 38.6648 117.006 39.0576 118.148 39.0576C119.29 39.0576 120.247 38.6648 121.021 37.8775C121.794 37.0902 122.181 36.1305 122.181 34.9986C122.181 33.8668 121.794 32.9058 121.021 32.1199C120.248 31.3326 119.29 30.9397 118.148 30.9397C117.006 30.9397 116.049 31.3326 115.275 32.1199C114.502 32.9072 114.115 33.8668 114.115 34.9986C114.115 36.1305 114.502 37.0916 115.275 37.8775Z" fill="#150C2F"></path> <path d="M132.495 39.0605C131.831 39.687 130.966 40.0002 129.898 40.0002C128.83 40.0002 127.965 39.687 127.301 39.0605C126.638 38.4341 126.307 37.597 126.307 36.5477V30.168H127.274V36.5477C127.274 37.3207 127.505 37.9329 127.965 38.3843C128.424 38.8355 129.07 39.0605 129.898 39.0605C130.727 39.0605 131.372 38.8355 131.832 38.3843C132.291 37.9329 132.522 37.3207 132.522 36.5477V30.168H133.489V36.5477C133.489 37.597 133.157 38.4355 132.495 39.0605Z" fill="#150C2F"></path> <path d="M141.001 30.1655C142.318 30.1655 143.406 30.6324 144.267 31.5663C145.129 32.5003 145.559 33.645 145.559 34.9975C145.559 36.35 145.129 37.4947 144.267 38.4286C143.406 39.3628 142.318 39.8311 141.001 39.8311H137.273V30.1641H141.001V30.1655ZM141.001 38.9213C142.061 38.9213 142.928 38.544 143.604 37.7895C144.28 37.0349 144.619 36.1051 144.619 35.0005C144.619 33.8956 144.28 32.9659 143.604 32.2112C142.928 31.4568 142.059 31.0795 141.001 31.0795H138.24V38.9241H141.001V38.9213Z" fill="#150C2F"></path> </g> </svg>